<svg width="30" height="26" viewBox="0 0 30 26" fill="none" xmlns="http://www.w3.org/2000/svg">
<path d="M15 20.6724C16.7212 20.6724 18.1803 20.0739 19.3773 18.8769C20.5743 17.6799 21.1728 16.2208 21.1728 14.4995C21.1728 12.7783 20.5743 11.3191 19.3773 10.1221C18.1803 8.92514 16.7212 8.32664 15 8.32664C13.2787 8.32664 11.8196 8.92514 10.6226 10.1221C9.42559 11.3191 8.8271 12.7783 8.8271 14.4995C8.8271 16.2208 9.42559 17.6799 10.6226 18.8769C11.8196 20.0739 13.2787 20.6724 15 20.6724ZM15 18.4228C13.8922 18.4228 12.9615 18.0458 12.2077 17.2918C11.4537 16.538 11.0767 15.6073 11.0767 14.4995C11.0767 13.3918 11.4537 12.461 12.2077 11.7073C12.9615 10.9533 13.8922 10.5763 15 10.5763C16.1077 10.5763 17.0385 10.9533 17.7922 11.7073C18.5462 12.461 18.9232 13.3918 18.9232 14.4995C18.9232 15.6073 18.5462 16.538 17.7922 17.2918C17.0385 18.0458 16.1077 18.4228 15 18.4228ZM3.46159 25.7495C2.70384 25.7495 2.06247 25.487 1.53747 24.962C1.01247 24.437 0.749969 23.7956 0.749969 23.0379V5.96114C0.749969 5.20339 1.01247 4.56201 1.53747 4.03701C2.06247 3.51201 2.70384 3.24951 3.46159 3.24951H8.04222L10.0038 1.12364C10.2501 0.852387 10.5477 0.638886 10.8967 0.483136C11.2457 0.327386 11.6135 0.249512 12 0.249512H18C18.3865 0.249512 18.7542 0.327386 19.1032 0.483136C19.4522 0.638886 19.7498 0.852387 19.9961 1.12364L21.9577 3.24951H26.5383C27.2961 3.24951 27.9375 3.51201 28.4625 4.03701C28.9875 4.56201 29.25 5.20339 29.25 5.96114V23.0379C29.25 23.7956 28.9875 24.437 28.4625 24.962C27.9375 25.487 27.2961 25.7495 26.5383 25.7495H3.46159Z" fill="#F5F6F9"/>
</svg>
